<mxfile host="Electron" modified="2023-06-23T18:37:51.371Z" agent="Mozilla/5.0 (Windows NT 10.0; Win64; x64) AppleWebKit/537.36 (KHTML, like Gecko) draw.io/21.1.2 Chrome/106.0.5249.199 Electron/21.4.3 Safari/537.36" etag="dL9FghfhOrKpCX_neLEA" version="21.1.2" type="device">
  <diagram name="Страница 1" id="qKVXBX1QGxPWmY-nz-M6">
    <mxGraphModel dx="2047" dy="622" grid="1" gridSize="10" guides="1" tooltips="1" connect="1" arrows="1" fold="1" page="1" pageScale="1.2" pageWidth="850" pageHeight="1100" math="0" shadow="0">
      <root>
        <mxCell id="0" />
        <mxCell id="1" parent="0" />
        <mxCell id="qAbumlSqk0VX9W-vKX8N-7" style="edgeStyle=orthogonalEdgeStyle;rounded=0;orthogonalLoop=1;jettySize=auto;html=1;exitX=0.5;exitY=1;exitDx=0;exitDy=0;" parent="1" source="qAbumlSqk0VX9W-vKX8N-1" target="qAbumlSqk0VX9W-vKX8N-3" edge="1">
          <mxGeometry relative="1" as="geometry" />
        </mxCell>
        <mxCell id="qAbumlSqk0VX9W-vKX8N-1" value="Start" style="ellipse;whiteSpace=wrap;html=1;" parent="1" vertex="1">
          <mxGeometry x="370" y="40" width="110" height="70" as="geometry" />
        </mxCell>
        <mxCell id="qAbumlSqk0VX9W-vKX8N-2" style="edgeStyle=orthogonalEdgeStyle;rounded=0;orthogonalLoop=1;jettySize=auto;html=1;exitX=0.5;exitY=1;exitDx=0;exitDy=0;" parent="1" source="qAbumlSqk0VX9W-vKX8N-1" target="qAbumlSqk0VX9W-vKX8N-1" edge="1">
          <mxGeometry relative="1" as="geometry" />
        </mxCell>
        <mxCell id="qAbumlSqk0VX9W-vKX8N-9" style="edgeStyle=orthogonalEdgeStyle;rounded=0;orthogonalLoop=1;jettySize=auto;html=1;exitX=0.5;exitY=1;exitDx=0;exitDy=0;entryX=0.5;entryY=0;entryDx=0;entryDy=0;" parent="1" source="qAbumlSqk0VX9W-vKX8N-3" target="qAbumlSqk0VX9W-vKX8N-8" edge="1">
          <mxGeometry relative="1" as="geometry" />
        </mxCell>
        <mxCell id="qAbumlSqk0VX9W-vKX8N-3" value="arrString[]" style="shape=parallelogram;perimeter=parallelogramPerimeter;whiteSpace=wrap;html=1;fixedSize=1;" parent="1" vertex="1">
          <mxGeometry x="348.75" y="150" width="152.5" height="60" as="geometry" />
        </mxCell>
        <mxCell id="qAbumlSqk0VX9W-vKX8N-11" style="edgeStyle=orthogonalEdgeStyle;rounded=0;orthogonalLoop=1;jettySize=auto;html=1;exitX=0.5;exitY=1;exitDx=0;exitDy=0;entryX=0.5;entryY=0;entryDx=0;entryDy=0;" parent="1" source="qAbumlSqk0VX9W-vKX8N-8" target="qAbumlSqk0VX9W-vKX8N-10" edge="1">
          <mxGeometry relative="1" as="geometry" />
        </mxCell>
        <mxCell id="qAbumlSqk0VX9W-vKX8N-8" value="newArrString[]&lt;br&gt;index = 0&lt;br&gt;count = 0" style="rounded=0;whiteSpace=wrap;html=1;" parent="1" vertex="1">
          <mxGeometry x="342.5" y="260" width="165" height="70" as="geometry" />
        </mxCell>
        <mxCell id="qAbumlSqk0VX9W-vKX8N-13" value="Yes" style="edgeStyle=orthogonalEdgeStyle;rounded=0;orthogonalLoop=1;jettySize=auto;html=1;exitX=0.5;exitY=1;exitDx=0;exitDy=0;entryX=0.5;entryY=0;entryDx=0;entryDy=0;" parent="1" source="qAbumlSqk0VX9W-vKX8N-10" target="qAbumlSqk0VX9W-vKX8N-12" edge="1">
          <mxGeometry relative="1" as="geometry" />
        </mxCell>
        <mxCell id="qAbumlSqk0VX9W-vKX8N-26" value="No" style="edgeStyle=orthogonalEdgeStyle;rounded=0;orthogonalLoop=1;jettySize=auto;html=1;" parent="1" source="qAbumlSqk0VX9W-vKX8N-10" target="qAbumlSqk0VX9W-vKX8N-25" edge="1">
          <mxGeometry relative="1" as="geometry" />
        </mxCell>
        <mxCell id="qAbumlSqk0VX9W-vKX8N-10" value="count &amp;lt; arrString.Length" style="rhombus;whiteSpace=wrap;html=1;" parent="1" vertex="1">
          <mxGeometry x="335" y="360" width="180" height="90" as="geometry" />
        </mxCell>
        <mxCell id="qAbumlSqk0VX9W-vKX8N-16" style="edgeStyle=orthogonalEdgeStyle;rounded=0;orthogonalLoop=1;jettySize=auto;html=1;exitX=0;exitY=0.5;exitDx=0;exitDy=0;" parent="1" source="qAbumlSqk0VX9W-vKX8N-12" target="qAbumlSqk0VX9W-vKX8N-15" edge="1">
          <mxGeometry relative="1" as="geometry" />
        </mxCell>
        <mxCell id="qAbumlSqk0VX9W-vKX8N-17" value="Yes" style="edgeLabel;html=1;align=center;verticalAlign=middle;resizable=0;points=[];" parent="qAbumlSqk0VX9W-vKX8N-16" vertex="1" connectable="0">
          <mxGeometry x="-0.0847" y="1" relative="1" as="geometry">
            <mxPoint as="offset" />
          </mxGeometry>
        </mxCell>
        <mxCell id="qAbumlSqk0VX9W-vKX8N-19" style="edgeStyle=orthogonalEdgeStyle;rounded=0;orthogonalLoop=1;jettySize=auto;html=1;exitX=1;exitY=0.5;exitDx=0;exitDy=0;entryX=0.5;entryY=0;entryDx=0;entryDy=0;" parent="1" source="qAbumlSqk0VX9W-vKX8N-12" target="qAbumlSqk0VX9W-vKX8N-18" edge="1">
          <mxGeometry relative="1" as="geometry" />
        </mxCell>
        <mxCell id="qAbumlSqk0VX9W-vKX8N-20" value="No" style="edgeLabel;html=1;align=center;verticalAlign=middle;resizable=0;points=[];" parent="qAbumlSqk0VX9W-vKX8N-19" vertex="1" connectable="0">
          <mxGeometry x="-0.0794" y="1" relative="1" as="geometry">
            <mxPoint as="offset" />
          </mxGeometry>
        </mxCell>
        <mxCell id="qAbumlSqk0VX9W-vKX8N-12" value="arrString[count].Length &amp;lt;= 3" style="rhombus;whiteSpace=wrap;html=1;" parent="1" vertex="1">
          <mxGeometry x="330" y="490" width="190" height="80" as="geometry" />
        </mxCell>
        <mxCell id="qAbumlSqk0VX9W-vKX8N-22" style="edgeStyle=orthogonalEdgeStyle;rounded=0;orthogonalLoop=1;jettySize=auto;html=1;entryX=0;entryY=0.5;entryDx=0;entryDy=0;" parent="1" source="qAbumlSqk0VX9W-vKX8N-15" target="qAbumlSqk0VX9W-vKX8N-10" edge="1">
          <mxGeometry relative="1" as="geometry">
            <Array as="points">
              <mxPoint x="180" y="605" />
              <mxPoint x="180" y="405" />
            </Array>
          </mxGeometry>
        </mxCell>
        <mxCell id="qAbumlSqk0VX9W-vKX8N-15" value="newArrString[index] = arrString[count]&lt;br&gt;index++&lt;br&gt;count++" style="rounded=0;whiteSpace=wrap;html=1;" parent="1" vertex="1">
          <mxGeometry x="210" y="570" width="138.75" height="70" as="geometry" />
        </mxCell>
        <mxCell id="qAbumlSqk0VX9W-vKX8N-24" style="edgeStyle=orthogonalEdgeStyle;rounded=0;orthogonalLoop=1;jettySize=auto;html=1;exitX=0.5;exitY=1;exitDx=0;exitDy=0;" parent="1" source="qAbumlSqk0VX9W-vKX8N-18" edge="1">
          <mxGeometry relative="1" as="geometry">
            <mxPoint x="180" y="605" as="targetPoint" />
            <Array as="points">
              <mxPoint x="575" y="660" />
              <mxPoint x="180" y="660" />
              <mxPoint x="180" y="610" />
            </Array>
          </mxGeometry>
        </mxCell>
        <mxCell id="qAbumlSqk0VX9W-vKX8N-18" value="count++" style="rounded=0;whiteSpace=wrap;html=1;" parent="1" vertex="1">
          <mxGeometry x="510" y="570" width="130" height="70" as="geometry" />
        </mxCell>
        <mxCell id="qAbumlSqk0VX9W-vKX8N-28" style="edgeStyle=orthogonalEdgeStyle;rounded=0;orthogonalLoop=1;jettySize=auto;html=1;" parent="1" source="qAbumlSqk0VX9W-vKX8N-25" target="qAbumlSqk0VX9W-vKX8N-27" edge="1">
          <mxGeometry relative="1" as="geometry" />
        </mxCell>
        <mxCell id="qAbumlSqk0VX9W-vKX8N-25" value="PrintArray(arrString)&lt;br&gt;PrintArray(newArrString)" style="shape=document;whiteSpace=wrap;html=1;boundedLbl=1;" parent="1" vertex="1">
          <mxGeometry x="590" y="357.5" width="190" height="95" as="geometry" />
        </mxCell>
        <mxCell id="qAbumlSqk0VX9W-vKX8N-27" value="End" style="ellipse;whiteSpace=wrap;html=1;" parent="1" vertex="1">
          <mxGeometry x="850" y="372.5" width="100" height="65" as="geometry" />
        </mxCell>
        <mxCell id="qAbumlSqk0VX9W-vKX8N-31" style="edgeStyle=orthogonalEdgeStyle;rounded=0;orthogonalLoop=1;jettySize=auto;html=1;" parent="1" source="qAbumlSqk0VX9W-vKX8N-29" edge="1">
          <mxGeometry relative="1" as="geometry">
            <mxPoint x="510" y="180" as="targetPoint" />
          </mxGeometry>
        </mxCell>
        <mxCell id="qAbumlSqk0VX9W-vKX8N-29" value="Получаем данные от пользователя&lt;br&gt;и вносим их в исходный массив" style="text;html=1;align=center;verticalAlign=middle;resizable=0;points=[];autosize=1;strokeColor=none;fillColor=none;" parent="1" vertex="1">
          <mxGeometry x="550" y="160" width="220" height="40" as="geometry" />
        </mxCell>
        <mxCell id="qAbumlSqk0VX9W-vKX8N-33" style="edgeStyle=orthogonalEdgeStyle;rounded=0;orthogonalLoop=1;jettySize=auto;html=1;" parent="1" source="qAbumlSqk0VX9W-vKX8N-32" edge="1">
          <mxGeometry relative="1" as="geometry">
            <mxPoint x="530" y="285" as="targetPoint" />
          </mxGeometry>
        </mxCell>
        <mxCell id="qAbumlSqk0VX9W-vKX8N-32" value="Создаем новый массив (итоговый)&lt;br&gt;в который будем вносить элементы из&amp;nbsp;&lt;br&gt;первого массива которые&amp;nbsp;&lt;br&gt;состоят из 3 символов или меньше.&lt;br&gt;Так же создаем счетчики.&lt;br&gt;index для итогового массива&lt;br&gt;count для исходного" style="text;html=1;align=center;verticalAlign=middle;resizable=0;points=[];autosize=1;strokeColor=none;fillColor=none;" parent="1" vertex="1">
          <mxGeometry x="565" y="230" width="240" height="110" as="geometry" />
        </mxCell>
        <mxCell id="qAbumlSqk0VX9W-vKX8N-37" style="edgeStyle=orthogonalEdgeStyle;rounded=0;orthogonalLoop=1;jettySize=auto;html=1;" parent="1" source="qAbumlSqk0VX9W-vKX8N-34" edge="1">
          <mxGeometry relative="1" as="geometry">
            <mxPoint x="150" y="505" as="targetPoint" />
          </mxGeometry>
        </mxCell>
        <mxCell id="qAbumlSqk0VX9W-vKX8N-34" value="В цикле перебираем исходный массив&lt;br&gt;и все элементы которые сосотоят из&lt;br&gt;3 символов или меньше кладем&lt;br&gt;в итоговый массив" style="text;html=1;align=center;verticalAlign=middle;resizable=0;points=[];autosize=1;strokeColor=none;fillColor=none;" parent="1" vertex="1">
          <mxGeometry x="-140" y="470" width="240" height="70" as="geometry" />
        </mxCell>
        <mxCell id="qAbumlSqk0VX9W-vKX8N-39" style="edgeStyle=orthogonalEdgeStyle;rounded=0;orthogonalLoop=1;jettySize=auto;html=1;" parent="1" source="qAbumlSqk0VX9W-vKX8N-38" edge="1">
          <mxGeometry relative="1" as="geometry">
            <mxPoint x="685" y="460" as="targetPoint" />
          </mxGeometry>
        </mxCell>
        <mxCell id="qAbumlSqk0VX9W-vKX8N-38" value="После цикла выводим в консоль&lt;br&gt;сначала исходный массив потом&amp;nbsp;&lt;br&gt;итоговый" style="text;html=1;align=center;verticalAlign=middle;resizable=0;points=[];autosize=1;strokeColor=none;fillColor=none;" parent="1" vertex="1">
          <mxGeometry x="680" y="510" width="210" height="60" as="geometry" />
        </mxCell>
        <mxCell id="qAbumlSqk0VX9W-vKX8N-41" value="" style="edgeStyle=orthogonalEdgeStyle;rounded=0;orthogonalLoop=1;jettySize=auto;html=1;" parent="1" source="qAbumlSqk0VX9W-vKX8N-40" edge="1">
          <mxGeometry relative="1" as="geometry">
            <mxPoint x="900" y="360" as="targetPoint" />
            <Array as="points">
              <mxPoint x="960" y="350" />
              <mxPoint x="900" y="350" />
            </Array>
          </mxGeometry>
        </mxCell>
        <mxCell id="qAbumlSqk0VX9W-vKX8N-40" value="Завершение программы" style="text;html=1;align=center;verticalAlign=middle;resizable=0;points=[];autosize=1;strokeColor=none;fillColor=none;" parent="1" vertex="1">
          <mxGeometry x="880" y="305" width="160" height="30" as="geometry" />
        </mxCell>
        <mxCell id="qAbumlSqk0VX9W-vKX8N-44" style="edgeStyle=orthogonalEdgeStyle;rounded=0;orthogonalLoop=1;jettySize=auto;html=1;" parent="1" source="qAbumlSqk0VX9W-vKX8N-43" edge="1">
          <mxGeometry relative="1" as="geometry">
            <mxPoint x="490" y="70" as="targetPoint" />
          </mxGeometry>
        </mxCell>
        <mxCell id="qAbumlSqk0VX9W-vKX8N-43" value="Старт программы" style="text;html=1;align=center;verticalAlign=middle;resizable=0;points=[];autosize=1;strokeColor=none;fillColor=none;" parent="1" vertex="1">
          <mxGeometry x="520" y="55" width="120" height="30" as="geometry" />
        </mxCell>
        <mxCell id="qAbumlSqk0VX9W-vKX8N-45" value="&lt;font style=&quot;font-size: 14px;&quot;&gt;Задача: Написать программу, которая из имеющегося массива строк формирует новый массив из строк, &lt;br&gt;длина которых меньше, либо равна 3 символам.&lt;/font&gt;" style="text;whiteSpace=wrap;html=1;" parent="1" vertex="1">
          <mxGeometry x="-17.5" y="40" width="360" height="75" as="geometry" />
        </mxCell>
      </root>
    </mxGraphModel>
  </diagram>
</mxfile>
